<mxfile host="app.diagrams.net" agent="Mozilla/5.0 (Windows NT 10.0; Win64; x64) AppleWebKit/537.36 (KHTML, like Gecko) Chrome/129.0.0.0 Safari/537.36" version="24.7.14">
  <diagram id="R2lEEEUBdFMjLlhIrx00" name="Page-1">
    <mxGraphModel dx="1114" dy="598" grid="0" gridSize="10" guides="1" tooltips="1" connect="1" arrows="1" fold="1" page="1" pageScale="1" pageWidth="850" pageHeight="1100" background="#FFFFFF" math="0" shadow="0" extFonts="Permanent Marker^https://fonts.googleapis.com/css?family=Permanent+Marker">
      <root>
        <mxCell id="0" />
        <mxCell id="1" parent="0" />
        <mxCell id="2VE-r9qTDA3S7tGCT8DE-6" value="KhachHang" style="swimlane;fontStyle=0;childLayout=stackLayout;horizontal=1;startSize=30;horizontalStack=0;resizeParent=1;resizeParentMax=0;resizeLast=0;collapsible=1;marginBottom=0;whiteSpace=wrap;html=1;" vertex="1" parent="1">
          <mxGeometry x="131" y="81" width="133" height="270" as="geometry" />
        </mxCell>
        <mxCell id="2VE-r9qTDA3S7tGCT8DE-7" value="MaKH" style="text;strokeColor=none;fillColor=none;align=left;verticalAlign=middle;spacingLeft=4;spacingRight=4;overflow=hidden;points=[[0,0.5],[1,0.5]];portConstraint=eastwest;rotatable=0;whiteSpace=wrap;html=1;" vertex="1" parent="2VE-r9qTDA3S7tGCT8DE-6">
          <mxGeometry y="30" width="133" height="30" as="geometry" />
        </mxCell>
        <mxCell id="2VE-r9qTDA3S7tGCT8DE-8" value="HoTenKH" style="text;strokeColor=none;fillColor=none;align=left;verticalAlign=middle;spacingLeft=4;spacingRight=4;overflow=hidden;points=[[0,0.5],[1,0.5]];portConstraint=eastwest;rotatable=0;whiteSpace=wrap;html=1;" vertex="1" parent="2VE-r9qTDA3S7tGCT8DE-6">
          <mxGeometry y="60" width="133" height="30" as="geometry" />
        </mxCell>
        <mxCell id="2VE-r9qTDA3S7tGCT8DE-9" value="NgaySinh" style="text;strokeColor=none;fillColor=none;align=left;verticalAlign=middle;spacingLeft=4;spacingRight=4;overflow=hidden;points=[[0,0.5],[1,0.5]];portConstraint=eastwest;rotatable=0;whiteSpace=wrap;html=1;" vertex="1" parent="2VE-r9qTDA3S7tGCT8DE-6">
          <mxGeometry y="90" width="133" height="30" as="geometry" />
        </mxCell>
        <mxCell id="2VE-r9qTDA3S7tGCT8DE-10" value="CCCD" style="text;strokeColor=none;fillColor=none;align=left;verticalAlign=middle;spacingLeft=4;spacingRight=4;overflow=hidden;points=[[0,0.5],[1,0.5]];portConstraint=eastwest;rotatable=0;whiteSpace=wrap;html=1;" vertex="1" parent="2VE-r9qTDA3S7tGCT8DE-6">
          <mxGeometry y="120" width="133" height="30" as="geometry" />
        </mxCell>
        <mxCell id="2VE-r9qTDA3S7tGCT8DE-15" value="DiaChi" style="text;strokeColor=none;fillColor=none;align=left;verticalAlign=middle;spacingLeft=4;spacingRight=4;overflow=hidden;points=[[0,0.5],[1,0.5]];portConstraint=eastwest;rotatable=0;whiteSpace=wrap;html=1;" vertex="1" parent="2VE-r9qTDA3S7tGCT8DE-6">
          <mxGeometry y="150" width="133" height="30" as="geometry" />
        </mxCell>
        <mxCell id="2VE-r9qTDA3S7tGCT8DE-16" value="SDT" style="text;strokeColor=none;fillColor=none;align=left;verticalAlign=middle;spacingLeft=4;spacingRight=4;overflow=hidden;points=[[0,0.5],[1,0.5]];portConstraint=eastwest;rotatable=0;whiteSpace=wrap;html=1;" vertex="1" parent="2VE-r9qTDA3S7tGCT8DE-6">
          <mxGeometry y="180" width="133" height="30" as="geometry" />
        </mxCell>
        <mxCell id="2VE-r9qTDA3S7tGCT8DE-24" value="Email" style="text;strokeColor=none;fillColor=none;align=left;verticalAlign=middle;spacingLeft=4;spacingRight=4;overflow=hidden;points=[[0,0.5],[1,0.5]];portConstraint=eastwest;rotatable=0;whiteSpace=wrap;html=1;" vertex="1" parent="2VE-r9qTDA3S7tGCT8DE-6">
          <mxGeometry y="210" width="133" height="30" as="geometry" />
        </mxCell>
        <mxCell id="2VE-r9qTDA3S7tGCT8DE-25" value="ThuNhapHangThang" style="text;strokeColor=none;fillColor=none;align=left;verticalAlign=middle;spacingLeft=4;spacingRight=4;overflow=hidden;points=[[0,0.5],[1,0.5]];portConstraint=eastwest;rotatable=0;whiteSpace=wrap;html=1;" vertex="1" parent="2VE-r9qTDA3S7tGCT8DE-6">
          <mxGeometry y="240" width="133" height="30" as="geometry" />
        </mxCell>
        <mxCell id="2VE-r9qTDA3S7tGCT8DE-26" value="TheTinDung" style="swimlane;fontStyle=0;childLayout=stackLayout;horizontal=1;startSize=30;horizontalStack=0;resizeParent=1;resizeParentMax=0;resizeLast=0;collapsible=1;marginBottom=0;whiteSpace=wrap;html=1;" vertex="1" parent="1">
          <mxGeometry x="350" y="396" width="112" height="210" as="geometry" />
        </mxCell>
        <mxCell id="2VE-r9qTDA3S7tGCT8DE-27" value="SoTheTinDung" style="text;strokeColor=none;fillColor=none;align=left;verticalAlign=middle;spacingLeft=4;spacingRight=4;overflow=hidden;points=[[0,0.5],[1,0.5]];portConstraint=eastwest;rotatable=0;whiteSpace=wrap;html=1;" vertex="1" parent="2VE-r9qTDA3S7tGCT8DE-26">
          <mxGeometry y="30" width="112" height="30" as="geometry" />
        </mxCell>
        <mxCell id="2VE-r9qTDA3S7tGCT8DE-28" value="LoaiThe" style="text;strokeColor=none;fillColor=none;align=left;verticalAlign=middle;spacingLeft=4;spacingRight=4;overflow=hidden;points=[[0,0.5],[1,0.5]];portConstraint=eastwest;rotatable=0;whiteSpace=wrap;html=1;" vertex="1" parent="2VE-r9qTDA3S7tGCT8DE-26">
          <mxGeometry y="60" width="112" height="30" as="geometry" />
        </mxCell>
        <mxCell id="2VE-r9qTDA3S7tGCT8DE-29" value="HanMuc" style="text;strokeColor=none;fillColor=none;align=left;verticalAlign=middle;spacingLeft=4;spacingRight=4;overflow=hidden;points=[[0,0.5],[1,0.5]];portConstraint=eastwest;rotatable=0;whiteSpace=wrap;html=1;" vertex="1" parent="2VE-r9qTDA3S7tGCT8DE-26">
          <mxGeometry y="90" width="112" height="30" as="geometry" />
        </mxCell>
        <mxCell id="2VE-r9qTDA3S7tGCT8DE-30" value="NgayPhatHanh" style="text;strokeColor=none;fillColor=none;align=left;verticalAlign=middle;spacingLeft=4;spacingRight=4;overflow=hidden;points=[[0,0.5],[1,0.5]];portConstraint=eastwest;rotatable=0;whiteSpace=wrap;html=1;" vertex="1" parent="2VE-r9qTDA3S7tGCT8DE-26">
          <mxGeometry y="120" width="112" height="30" as="geometry" />
        </mxCell>
        <mxCell id="2VE-r9qTDA3S7tGCT8DE-31" value="NgayHetHan" style="text;strokeColor=none;fillColor=none;align=left;verticalAlign=middle;spacingLeft=4;spacingRight=4;overflow=hidden;points=[[0,0.5],[1,0.5]];portConstraint=eastwest;rotatable=0;whiteSpace=wrap;html=1;" vertex="1" parent="2VE-r9qTDA3S7tGCT8DE-26">
          <mxGeometry y="150" width="112" height="30" as="geometry" />
        </mxCell>
        <mxCell id="2VE-r9qTDA3S7tGCT8DE-32" value="TrangThai" style="text;strokeColor=none;fillColor=none;align=left;verticalAlign=middle;spacingLeft=4;spacingRight=4;overflow=hidden;points=[[0,0.5],[1,0.5]];portConstraint=eastwest;rotatable=0;whiteSpace=wrap;html=1;" vertex="1" parent="2VE-r9qTDA3S7tGCT8DE-26">
          <mxGeometry y="180" width="112" height="30" as="geometry" />
        </mxCell>
        <mxCell id="2VE-r9qTDA3S7tGCT8DE-33" value="HoSoMoThe" style="swimlane;fontStyle=0;childLayout=stackLayout;horizontal=1;startSize=30;horizontalStack=0;resizeParent=1;resizeParentMax=0;resizeLast=0;collapsible=1;marginBottom=0;whiteSpace=wrap;html=1;" vertex="1" parent="1">
          <mxGeometry x="359" y="74" width="113" height="120" as="geometry" />
        </mxCell>
        <mxCell id="2VE-r9qTDA3S7tGCT8DE-34" value="MaHoSo" style="text;strokeColor=none;fillColor=none;align=left;verticalAlign=middle;spacingLeft=4;spacingRight=4;overflow=hidden;points=[[0,0.5],[1,0.5]];portConstraint=eastwest;rotatable=0;whiteSpace=wrap;html=1;" vertex="1" parent="2VE-r9qTDA3S7tGCT8DE-33">
          <mxGeometry y="30" width="113" height="30" as="geometry" />
        </mxCell>
        <mxCell id="2VE-r9qTDA3S7tGCT8DE-35" value="NgayDangKy" style="text;strokeColor=none;fillColor=none;align=left;verticalAlign=middle;spacingLeft=4;spacingRight=4;overflow=hidden;points=[[0,0.5],[1,0.5]];portConstraint=eastwest;rotatable=0;whiteSpace=wrap;html=1;" vertex="1" parent="2VE-r9qTDA3S7tGCT8DE-33">
          <mxGeometry y="60" width="113" height="30" as="geometry" />
        </mxCell>
        <mxCell id="2VE-r9qTDA3S7tGCT8DE-36" value="TrangThai" style="text;strokeColor=none;fillColor=none;align=left;verticalAlign=middle;spacingLeft=4;spacingRight=4;overflow=hidden;points=[[0,0.5],[1,0.5]];portConstraint=eastwest;rotatable=0;whiteSpace=wrap;html=1;" vertex="1" parent="2VE-r9qTDA3S7tGCT8DE-33">
          <mxGeometry y="90" width="113" height="30" as="geometry" />
        </mxCell>
        <mxCell id="2VE-r9qTDA3S7tGCT8DE-38" value="NhanVien" style="swimlane;fontStyle=0;childLayout=stackLayout;horizontal=1;startSize=30;horizontalStack=0;resizeParent=1;resizeParentMax=0;resizeLast=0;collapsible=1;marginBottom=0;whiteSpace=wrap;html=1;" vertex="1" parent="1">
          <mxGeometry x="567" y="74" width="103" height="150" as="geometry" />
        </mxCell>
        <mxCell id="2VE-r9qTDA3S7tGCT8DE-39" value="MaNV" style="text;strokeColor=none;fillColor=none;align=left;verticalAlign=middle;spacingLeft=4;spacingRight=4;overflow=hidden;points=[[0,0.5],[1,0.5]];portConstraint=eastwest;rotatable=0;whiteSpace=wrap;html=1;" vertex="1" parent="2VE-r9qTDA3S7tGCT8DE-38">
          <mxGeometry y="30" width="103" height="30" as="geometry" />
        </mxCell>
        <mxCell id="2VE-r9qTDA3S7tGCT8DE-40" value="HoTen" style="text;strokeColor=none;fillColor=none;align=left;verticalAlign=middle;spacingLeft=4;spacingRight=4;overflow=hidden;points=[[0,0.5],[1,0.5]];portConstraint=eastwest;rotatable=0;whiteSpace=wrap;html=1;" vertex="1" parent="2VE-r9qTDA3S7tGCT8DE-38">
          <mxGeometry y="60" width="103" height="30" as="geometry" />
        </mxCell>
        <mxCell id="2VE-r9qTDA3S7tGCT8DE-41" value="ChucVu" style="text;strokeColor=none;fillColor=none;align=left;verticalAlign=middle;spacingLeft=4;spacingRight=4;overflow=hidden;points=[[0,0.5],[1,0.5]];portConstraint=eastwest;rotatable=0;whiteSpace=wrap;html=1;" vertex="1" parent="2VE-r9qTDA3S7tGCT8DE-38">
          <mxGeometry y="90" width="103" height="30" as="geometry" />
        </mxCell>
        <mxCell id="2VE-r9qTDA3S7tGCT8DE-42" value="PhongBan" style="text;strokeColor=none;fillColor=none;align=left;verticalAlign=middle;spacingLeft=4;spacingRight=4;overflow=hidden;points=[[0,0.5],[1,0.5]];portConstraint=eastwest;rotatable=0;whiteSpace=wrap;html=1;" vertex="1" parent="2VE-r9qTDA3S7tGCT8DE-38">
          <mxGeometry y="120" width="103" height="30" as="geometry" />
        </mxCell>
        <mxCell id="2VE-r9qTDA3S7tGCT8DE-43" value="GiaoDich" style="swimlane;fontStyle=0;childLayout=stackLayout;horizontal=1;startSize=30;horizontalStack=0;resizeParent=1;resizeParentMax=0;resizeLast=0;collapsible=1;marginBottom=0;whiteSpace=wrap;html=1;" vertex="1" parent="1">
          <mxGeometry x="567" y="492" width="105" height="150" as="geometry" />
        </mxCell>
        <mxCell id="2VE-r9qTDA3S7tGCT8DE-44" value="MaGiaoDich" style="text;strokeColor=none;fillColor=none;align=left;verticalAlign=middle;spacingLeft=4;spacingRight=4;overflow=hidden;points=[[0,0.5],[1,0.5]];portConstraint=eastwest;rotatable=0;whiteSpace=wrap;html=1;" vertex="1" parent="2VE-r9qTDA3S7tGCT8DE-43">
          <mxGeometry y="30" width="105" height="30" as="geometry" />
        </mxCell>
        <mxCell id="2VE-r9qTDA3S7tGCT8DE-45" value="NgayGiaoDich" style="text;strokeColor=none;fillColor=none;align=left;verticalAlign=middle;spacingLeft=4;spacingRight=4;overflow=hidden;points=[[0,0.5],[1,0.5]];portConstraint=eastwest;rotatable=0;whiteSpace=wrap;html=1;" vertex="1" parent="2VE-r9qTDA3S7tGCT8DE-43">
          <mxGeometry y="60" width="105" height="30" as="geometry" />
        </mxCell>
        <mxCell id="2VE-r9qTDA3S7tGCT8DE-46" value="SoTien" style="text;strokeColor=none;fillColor=none;align=left;verticalAlign=middle;spacingLeft=4;spacingRight=4;overflow=hidden;points=[[0,0.5],[1,0.5]];portConstraint=eastwest;rotatable=0;whiteSpace=wrap;html=1;" vertex="1" parent="2VE-r9qTDA3S7tGCT8DE-43">
          <mxGeometry y="90" width="105" height="30" as="geometry" />
        </mxCell>
        <mxCell id="2VE-r9qTDA3S7tGCT8DE-47" value="LoaiGiaoDich" style="text;strokeColor=none;fillColor=none;align=left;verticalAlign=middle;spacingLeft=4;spacingRight=4;overflow=hidden;points=[[0,0.5],[1,0.5]];portConstraint=eastwest;rotatable=0;whiteSpace=wrap;html=1;" vertex="1" parent="2VE-r9qTDA3S7tGCT8DE-43">
          <mxGeometry y="120" width="105" height="30" as="geometry" />
        </mxCell>
        <mxCell id="2VE-r9qTDA3S7tGCT8DE-49" value="" style="edgeStyle=entityRelationEdgeStyle;fontSize=12;html=1;endArrow=ERmany;rounded=0;exitX=1;exitY=0.5;exitDx=0;exitDy=0;entryX=0.004;entryY=0.317;entryDx=0;entryDy=0;entryPerimeter=0;" edge="1" parent="1" source="2VE-r9qTDA3S7tGCT8DE-9" target="2VE-r9qTDA3S7tGCT8DE-34">
          <mxGeometry width="100" height="100" relative="1" as="geometry">
            <mxPoint x="396" y="146" as="sourcePoint" />
            <mxPoint x="496" y="46" as="targetPoint" />
          </mxGeometry>
        </mxCell>
        <mxCell id="2VE-r9qTDA3S7tGCT8DE-50" value="" style="edgeStyle=entityRelationEdgeStyle;fontSize=12;html=1;endArrow=ERmany;rounded=0;entryX=1;entryY=0.5;entryDx=0;entryDy=0;" edge="1" parent="1" source="2VE-r9qTDA3S7tGCT8DE-41" target="2VE-r9qTDA3S7tGCT8DE-34">
          <mxGeometry width="100" height="100" relative="1" as="geometry">
            <mxPoint x="396" y="146" as="sourcePoint" />
            <mxPoint x="496" y="46" as="targetPoint" />
            <Array as="points">
              <mxPoint x="515" y="162" />
              <mxPoint x="495" y="160" />
            </Array>
          </mxGeometry>
        </mxCell>
        <mxCell id="2VE-r9qTDA3S7tGCT8DE-51" value="" style="edgeStyle=entityRelationEdgeStyle;fontSize=12;html=1;endArrow=ERmany;rounded=0;exitX=0.998;exitY=0.026;exitDx=0;exitDy=0;exitPerimeter=0;entryX=0;entryY=0.5;entryDx=0;entryDy=0;" edge="1" parent="1" source="2VE-r9qTDA3S7tGCT8DE-16" target="2VE-r9qTDA3S7tGCT8DE-29">
          <mxGeometry width="100" height="100" relative="1" as="geometry">
            <mxPoint x="396" y="422" as="sourcePoint" />
            <mxPoint x="496" y="322" as="targetPoint" />
          </mxGeometry>
        </mxCell>
        <mxCell id="2VE-r9qTDA3S7tGCT8DE-52" value="" style="edgeStyle=entityRelationEdgeStyle;fontSize=12;html=1;endArrow=ERmany;rounded=0;entryX=1.006;entryY=0.854;entryDx=0;entryDy=0;entryPerimeter=0;" edge="1" parent="1" source="2VE-r9qTDA3S7tGCT8DE-44" target="2VE-r9qTDA3S7tGCT8DE-29">
          <mxGeometry width="100" height="100" relative="1" as="geometry">
            <mxPoint x="396" y="422" as="sourcePoint" />
            <mxPoint x="496" y="322" as="targetPoint" />
          </mxGeometry>
        </mxCell>
        <mxCell id="2VE-r9qTDA3S7tGCT8DE-53" value="NhanVien_GiaoDich" style="swimlane;fontStyle=0;childLayout=stackLayout;horizontal=1;startSize=26;horizontalStack=0;resizeParent=1;resizeParentMax=0;resizeLast=0;collapsible=1;marginBottom=0;align=center;fontSize=14;" vertex="1" parent="1">
          <mxGeometry x="556" y="271" width="160" height="146" as="geometry" />
        </mxCell>
        <mxCell id="2VE-r9qTDA3S7tGCT8DE-54" value="MaNV" style="text;strokeColor=none;fillColor=none;spacingLeft=4;spacingRight=4;overflow=hidden;rotatable=0;points=[[0,0.5],[1,0.5]];portConstraint=eastwest;fontSize=12;whiteSpace=wrap;html=1;" vertex="1" parent="2VE-r9qTDA3S7tGCT8DE-53">
          <mxGeometry y="26" width="160" height="30" as="geometry" />
        </mxCell>
        <mxCell id="2VE-r9qTDA3S7tGCT8DE-55" value="MaGiaoDich" style="text;strokeColor=none;fillColor=none;spacingLeft=4;spacingRight=4;overflow=hidden;rotatable=0;points=[[0,0.5],[1,0.5]];portConstraint=eastwest;fontSize=12;whiteSpace=wrap;html=1;" vertex="1" parent="2VE-r9qTDA3S7tGCT8DE-53">
          <mxGeometry y="56" width="160" height="30" as="geometry" />
        </mxCell>
        <mxCell id="2VE-r9qTDA3S7tGCT8DE-56" value="VaiTro" style="text;strokeColor=none;fillColor=none;spacingLeft=4;spacingRight=4;overflow=hidden;rotatable=0;points=[[0,0.5],[1,0.5]];portConstraint=eastwest;fontSize=12;whiteSpace=wrap;html=1;" vertex="1" parent="2VE-r9qTDA3S7tGCT8DE-53">
          <mxGeometry y="86" width="160" height="30" as="geometry" />
        </mxCell>
        <mxCell id="2VE-r9qTDA3S7tGCT8DE-57" value="NgayXuLy" style="text;strokeColor=none;fillColor=none;spacingLeft=4;spacingRight=4;overflow=hidden;rotatable=0;points=[[0,0.5],[1,0.5]];portConstraint=eastwest;fontSize=12;whiteSpace=wrap;html=1;" vertex="1" parent="2VE-r9qTDA3S7tGCT8DE-53">
          <mxGeometry y="116" width="160" height="30" as="geometry" />
        </mxCell>
        <mxCell id="2VE-r9qTDA3S7tGCT8DE-58" value="" style="edgeStyle=entityRelationEdgeStyle;fontSize=12;html=1;endArrow=ERmany;rounded=0;" edge="1" parent="1" target="2VE-r9qTDA3S7tGCT8DE-56">
          <mxGeometry width="100" height="100" relative="1" as="geometry">
            <mxPoint x="670" y="168" as="sourcePoint" />
            <mxPoint x="622" y="256" as="targetPoint" />
          </mxGeometry>
        </mxCell>
        <mxCell id="2VE-r9qTDA3S7tGCT8DE-59" value="" style="edgeStyle=entityRelationEdgeStyle;fontSize=12;html=1;endArrow=ERmany;rounded=0;" edge="1" parent="1" source="2VE-r9qTDA3S7tGCT8DE-43" target="2VE-r9qTDA3S7tGCT8DE-57">
          <mxGeometry width="100" height="100" relative="1" as="geometry">
            <mxPoint x="522" y="556" as="sourcePoint" />
            <mxPoint x="622" y="456" as="targetPoint" />
          </mxGeometry>
        </mxCell>
      </root>
    </mxGraphModel>
  </diagram>
</mxfile>
